Coordinates
version=1
nRows=11
nColumns=40
inDegrees=yes

Units are S.I. units (second, meters, Newtons, ...)
If the header above contains a line with 'inDegrees', this indicates whether rotational values are in degrees (yes) or radians (no).

endheader
time	pelvis_tilt	pelvis_list	pelvis_rotation	pelvis_tx	pelvis_ty	pelvis_tz	hip_flexion_r	hip_adduction_r	hip_rotation_r	knee_angle_r	knee_angle_r_beta	ankle_angle_r	subtalar_angle_r	mtp_angle_r	hip_flexion_l	hip_adduction_l	hip_rotation_l	knee_angle_l	knee_angle_l_beta	ankle_angle_l	subtalar_angle_l	mtp_angle_l	lumbar_extension	lumbar_bending	lumbar_rotation	arm_flex_r	arm_add_r	arm_rot_r	elbow_flex_r	pro_sup_r	wrist_flex_r	wrist_dev_r	arm_flex_l	arm_add_l	arm_rot_l	elbow_flex_l	pro_sup_l	wrist_flex_l	wrist_dev_l
      1.34166700	     -3.32865671	      1.59498610	      4.15938280	      0.74884291	      1.04971159	     -0.52491102	     27.94481691	     -4.94762691	     -0.88683124	      7.41330555	      0.12938659	     -7.08869709	      0.00000000	      0.00000000	     -7.04493159	      3.66992434	      8.37149499	     13.14641429	      0.22944821	     11.17772773	      0.00000000	      0.00000000	     -7.43984712	      0.19537346	    -12.27933190	    -13.93627519	     -8.94327166	     -5.98384662	     30.38411070	     49.25795982	      0.00000000	      0.00000000	      8.16024836	    -17.24409750	      0.98905062	     47.11707744	     51.92767888	      0.00000000	      0.00000000
      1.35000000	     -3.40924163	      1.60913528	      4.54040817	      0.74907540	      1.04766172	     -0.52452831	     27.69242276	     -5.09488587	     -0.54711227	      6.02507717	      0.10515743	     -7.43645215	      0.00000000	      0.00000000	     -7.39956260	      3.56956102	      8.57111292	     13.55665257	      0.23660822	     11.39334975	      0.00000000	      0.00000000	     -7.31345263	      0.21615153	    -12.69933944	    -14.17788747	     -8.90013920	     -6.18046972	     30.30912873	     49.30625232	      0.00000000	      0.00000000	      8.34605266	    -17.39625273	      1.19125384	     47.54688649	     51.81741417	      0.00000000	      0.00000000
      1.35833300	     -3.38534929	      1.55399872	      4.85832015	      0.74953588	      1.04579571	     -0.52406088	     27.43696029	     -5.13902743	     -0.33140519	      5.14332133	      0.08976789	     -7.74810659	      0.00000000	      0.00000000	     -7.86448864	      3.38234441	      8.66436276	     13.97435739	      0.24389855	     11.56801344	      0.00000000	      0.00000000	     -7.26580542	      0.31617405	    -13.01411442	    -14.40953138	     -8.88048511	     -6.39404875	     30.22104588	     49.35949678	      0.00000000	      0.00000000	      8.52497720	    -17.49941391	      1.36380599	     47.95322845	     51.66604472	      0.00000000	      0.00000000
      1.36666700	     -3.34747430	      1.52033212	      5.13698173	      0.75019441	      1.04401287	     -0.52354926	     27.32017227	     -5.18286515	     -0.12058950	      4.91718923	      0.08582114	     -7.71014174	      0.00000000	      0.00000000	     -8.33012635	      3.20946445	      8.76278923	     14.42394903	      0.25174540	     11.59291185	      0.00000000	      0.00000000	     -7.20519086	      0.39106217	    -13.26077803	    -14.65019365	     -8.89115305	     -6.50212268	     30.12648057	     49.37979859	      0.00000000	      0.00000000	      8.69867157	    -17.54723048	      1.46510611	     48.23412598	     51.60342427	      0.00000000	      0.00000000
      1.37500000	     -3.24338990	      1.41676671	      5.34088349	      0.75110936	      1.04241744	     -0.52291963	     27.20319493	     -5.10467188	     -0.01827253	      5.13470538	      0.08961751	     -7.79528853	      0.00000000	      0.00000000	     -8.85336979	      2.95328037	      8.78658586	     14.89949203	      0.26004519	     11.58175572	      0.00000000	      0.00000000	     -7.19123296	      0.55536884	    -13.43193346	    -14.86544904	     -8.92995109	     -6.62042203	     30.02705657	     49.40010713	      0.00000000	      0.00000000	      8.81393765	    -17.56869868	      1.55751299	     48.51463026	     51.54773440	      0.00000000	      0.00000000
      1.38333300	     -3.07919876	      1.26255394	      5.52460104	      0.75231782	      1.04098651	     -0.52222097	     27.08687889	     -4.94611252	     -0.05893375	      5.83343819	      0.10181270	     -7.82051464	      0.00000000	      0.00000000	     -9.39893175	      2.62292355	      8.71995855	     15.45244514	      0.26969605	     11.50336100	      0.00000000	      0.00000000	     -7.20892715	      0.77191075	    -13.54864713	    -15.09888217	     -8.98933089	     -6.75382357	     29.96458688	     49.43784761	      0.00000000	      0.00000000	      8.86954522	    -17.55895467	      1.63527265	     48.80646816	     51.47449951	      0.00000000	      0.00000000
      1.39166700	     -2.96037840	      1.09801687	      5.66903898	      0.75375328	      1.03954129	     -0.52145575	     27.09572718	     -4.74866331	     -0.14102687	      6.99015988	      0.12200131	     -7.77145462	      0.00000000	      0.00000000	     -9.86084507	      2.28472593	      8.67551250	     16.07662306	      0.28059000	     11.32676965	      0.00000000	      0.00000000	     -7.13554747	      0.99571327	    -13.62776332	    -15.38470738	     -9.06580418	     -6.85922951	     30.01009430	     49.51387893	      0.00000000	      0.00000000	      8.83829849	    -17.52191404	      1.67885539	     49.06960423	     51.35420788	      0.00000000	      0.00000000
      1.40000000	     -2.77905576	      0.92808184	      5.73577267	      0.75546542	      1.03831904	     -0.52056017	     27.01864469	     -4.47896427	     -0.26019098	      8.30262315	      0.14490811	     -8.01048808	      0.00000000	      0.00000000	    -10.35797850	      1.93747360	      8.52280845	     16.76156938	      0.29254457	     10.97730718	      0.00000000	      0.00000000	     -7.09209381	      1.21568561	    -13.61304927	    -15.66132170	     -9.14784415	     -6.82932539	     30.02735475	     49.55033987	      0.00000000	      0.00000000	      8.76991795	    -17.42275400	      1.67600468	     49.26181097	     51.29703411	      0.00000000	      0.00000000
      1.40833300	     -2.70924588	      0.74724272	      5.76499132	      0.75721729	      1.03701211	     -0.51958657	     27.12995513	     -4.16680619	     -0.41699327	      9.82574804	      0.17149165	     -8.11158570	      0.00000000	      0.00000000	    -10.63377352	      1.59679634	      8.33928617	     17.62960377	      0.30769463	     10.59377342	      0.00000000	      0.00000000	     -6.92814624	      1.43999881	    -13.58279898	    -15.95565532	     -9.30408618	     -6.74786471	     30.14030249	     49.58060384	      0.00000000	      0.00000000	      8.58564237	    -17.35619470	      1.62283658	     49.49915783	     51.22387493	      0.00000000	      0.00000000
      1.41666700	     -2.68590793	      0.55327130	      5.72601383	      0.75905965	      1.03583298	     -0.51842332	     27.27534587	     -3.78921459	     -0.50554264	     11.26705399	      0.19664719	     -8.44843068	      0.00000000	      0.00000000	    -10.78244365	      1.24913019	      8.04319412	     18.61841833	      0.32495270	     10.06505285	      0.00000000	      0.00000000	     -6.69378379	      1.65338007	    -13.48966473	    -16.18989640	     -9.43396251	     -6.67543836	     30.14378500	     49.58603851	      0.00000000	      0.00000000	      8.33602974	    -17.25711170	      1.48829415	     49.70589251	     51.16285783	      0.00000000	      0.00000000
      1.42500000	     -2.53430250	      0.31978212	      5.63246014	      0.76100756	      1.03518224	     -0.51716560	     27.12494276	     -3.30357267	     -0.23906171	     12.29720946	      0.21462679	     -9.08146969	      0.00000000	      0.00000000	    -11.13217596	      0.88321898	      8.15037543	     19.42560572	      0.33904078	      9.26473426	      0.00000000	      0.00000000	     -6.60259724	      1.92555471	    -13.34711330	    -16.29487500	     -9.57538880	     -6.68972456	     30.04784332	     49.58183469	      0.00000000	      0.00000000	      8.10053610	    -17.13201839	      1.43570441	     49.73779950	     51.15280927	      0.00000000	      0.00000000
